<svg width="1280" height="720" xmlns="http://www.w3.org/2000/svg" xmlns:xlink="http://www.w3.org/1999/xlink" overflow="hidden"><defs><clipPath id="clip0"><rect x="0" y="0" width="1280" height="720"/></clipPath><linearGradient x1="640" y1="720" x2="640" y2="0" gradientUnits="userSpaceOnUse" spreadMethod="reflect" id="fill1"><stop offset="0" stop-color="#D9D9D9"/><stop offset="0.27" stop-color="#A6A6A6"/><stop offset="0.74" stop-color="#BFBFBF"/><stop offset="1" stop-color="#7F7F7F"/></linearGradient></defs><g clip-path="url(#clip0)"><rect x="0" y="0" width="1280" height="720" fill="url(#fill1)"/><rect x="0.500053" y="0.500053" width="57" height="59" stroke="#0070C0" stroke-width="1.33333" stroke-linejoin="round" stroke-miterlimit="10" fill="#0070C0"/><rect x="58.5001" y="54.5001" width="1223" height="5" stroke="#0070C0" stroke-width="1.33333" stroke-linejoin="round" stroke-miterlimit="10" fill="#0070C0"/><text fill="#FFFFFF" font-family="Segoe UI Black,Segoe UI Black_MSFontService,sans-serif" font-weight="900" font-size="24" transform="translate(80.1882 38)">2023 Health Analysis</text><text fill="#FFFFFF" font-family="Segoe UI Black,Segoe UI Black_MSFontService,sans-serif" font-weight="900" font-size="24" transform="translate(334.355 38)">Report</text><g><g><g><path d="M26.14 46C28.3324 44.2691 30.4242 42.4145 32.405 40.445 35.2765 37.7093 37.8156 34.6449 39.97 31.315 41.97 28.095 43.88 23.915 42.565 20.095 41.5 16.935 38.545 14.25 35.15 13.925 30.86 13.5 27.755 17.13 26 20.605 24.395 17.425 21.74 14.145 17.905 13.905 14.5 13.695 11.33 16.09 9.865 19.065 8.03 22.8 9.525 27 11.455 30.355 13.455 33.855 16.115 36.93 18.925 39.775 21.1402 42.0413 23.5037 44.1576 26 46.11ZM18 29 19.5 24.5 20.39 21.825C20.62 21.13 20.975 20.2 21.935 20.6 22.515 20.845 22.55 21.445 22.65 21.97L23.065 24.185 24.265 30.585 25.06 34.835 27.96 27.165 28.6 25.475C28.785 24.975 28.975 24.475 29.6 24.42 30.395 24.34 30.63 25.02 30.805 25.62L31.42 27.73 32.64 31.925 33.845 30.6C34.2304 30.0956 34.6642 29.6301 35.14 29.21 35.64 28.86 36.565 29.02 37.14 29.02L39 29.02C38.63 29.685 38.22 30.355 37.775 31.02L36.15 31.02C35.085 32.195 34.065 33.445 32.935 34.56 32.5806 34.9836 31.9499 35.0396 31.5264 34.6852 31.4431 34.6154 31.3717 34.5326 31.315 34.44 31.2064 34.225 31.1273 33.9963 31.08 33.76L30.245 30.905 29.565 28.565C28.29 31.93 27.065 35.3 25.75 38.65 25.6765 38.9229 25.5169 39.1649 25.295 39.34 24.8398 39.6527 24.2173 39.5372 23.9046 39.082 23.8246 38.9656 23.7703 38.8338 23.745 38.695 23.63 38.235 23.57 37.755 23.48 37.295L22.215 30.545 21.27 25.5 19.86 29.735C19.645 30.365 19.475 30.98 18.665 31.02 17.93 31.055 17.19 31.02 16.46 31.02L14.21 31.02C13.77 30.355 13.355 29.685 12.985 29.02Z" stroke="#FF0000" stroke-width="0.50005" fill="#FF0000"/></g></g></g></g></svg>